<?xml version="1.0" encoding="utf-8"?>
<!-- Generated by Mocodo 4.2.8 -->
<svg width="496" height="304" viewBox="0 0 496 304" xmlns="http://www.w3.org/2000/svg">
<rect x="0" y="0" width="496" height="304" fill="#f7f7f7" stroke="none" stroke-width="0"/>

<!-- Association POSSEDER -->
<g>
	<line x1="41" y1="60" x2="146" y2="60" stroke="#d6604d" stroke-width="2"/>
	<line x1="257" y1="60" x2="146" y2="60" stroke="#d6604d" stroke-width="2"/>
	<g>
		<path d="M173 35 a14 14 90 0 1 14 14 V60 h-82 V49 a14 14 90 0 1 14 -14" fill="#f4a582" stroke="#f4a582" stroke-width="0"/>
		<path d="M187 60 v11 a14 14 90 0 1 -14 14 H119 a14 14 90 0 1 -14 -14 V60 H82" fill="#fddbc7" stroke="#fddbc7" stroke-width="0"/>
		<rect x="105" y="35" width="82" height="50" fill="none" rx="14" stroke="#d6604d" stroke-width="2"/>
		<line x1="105" y1="60" x2="187" y2="60" stroke="#d6604d" stroke-width="1"/>
		<text x="113" y="52.75" fill="#000000" font-family="Verdana" font-size="12">POSSEDER</text>
	</g>
	<text x="78" y="77" fill="#2166ac" font-family="Verdana" font-size="12">1,N</text>
	<text x="192" y="77" fill="#2166ac" font-family="Verdana" font-size="12">1,N</text>
</g>

<!-- Association AVOIR -->
<g>
	<line x1="257" y1="60" x2="354" y2="60" stroke="#d6604d" stroke-width="2"/>
	<line x1="450" y1="60" x2="354" y2="60" stroke="#d6604d" stroke-width="2"/>
	<g>
		<path d="M367 35 a14 14 90 0 1 14 14 V60 h-54 V49 a14 14 90 0 1 14 -14" fill="#f4a582" stroke="#f4a582" stroke-width="0"/>
		<path d="M381 60 v11 a14 14 90 0 1 -14 14 H341 a14 14 90 0 1 -14 -14 V60 H54" fill="#fddbc7" stroke="#fddbc7" stroke-width="0"/>
		<rect x="327" y="35" width="54" height="50" fill="none" rx="14" stroke="#d6604d" stroke-width="2"/>
		<line x1="327" y1="60" x2="381" y2="60" stroke="#d6604d" stroke-width="1"/>
		<text x="334" y="52.75" fill="#000000" font-family="Verdana" font-size="12">AVOIR</text>
	</g>
	<text x="300" y="77" fill="#2166ac" font-family="Verdana" font-size="12">1,N</text>
	<text x="386" y="77" fill="#2166ac" font-family="Verdana" font-size="12">1,N</text>
</g>

<!-- Association DISPOSER -->
<g>
	<line x1="257" y1="60" x2="257" y2="161" stroke="#d6604d" stroke-width="2"/>
	<line x1="257" y1="253" x2="257" y2="161" stroke="#d6604d" stroke-width="2"/>
	<g>
		<path d="M282 136 a14 14 90 0 1 14 14 V161 h-78 V150 a14 14 90 0 1 14 -14" fill="#f4a582" stroke="#f4a582" stroke-width="0"/>
		<path d="M296 161 v11 a14 14 90 0 1 -14 14 H232 a14 14 90 0 1 -14 -14 V161 H78" fill="#fddbc7" stroke="#fddbc7" stroke-width="0"/>
		<rect x="218" y="136" width="78" height="50" fill="none" rx="14" stroke="#d6604d" stroke-width="2"/>
		<line x1="218" y1="161" x2="296" y2="161" stroke="#d6604d" stroke-width="1"/>
		<text x="225" y="153.75" fill="#000000" font-family="Verdana" font-size="12">DISPOSER</text>
	</g>
	<text x="262" y="128" fill="#2166ac" font-family="Verdana" font-size="12">1,N</text>
	<text x="262" y="203" fill="#2166ac" font-family="Verdana" font-size="12">1,N</text>
</g>

<!-- Entity BRAND -->
<g>
	<g>
		<rect x="9" y="26" width="64" height="25" fill="#92c5de" stroke="none" stroke-width="0" opacity="1"/>
		<rect x="9" y="51" width="64" height="43" fill="#d1e5f0" stroke="none" stroke-width="0" opacity="1"/>
		<rect x="9" y="26" width="64" height="68" fill="none" stroke="#4393c3" stroke-width="2" opacity="1"/>
		<line x1="9" y1="51" x2="73" y2="51" stroke="#4393c3" stroke-width="1"/>
	</g>
	<text x="19" y="43.75" fill="#000000" font-family="Verdana" font-size="12">BRAND</text>
	<text x="14" y="68.8" fill="#000000" font-family="Verdana" font-size="12">brand_id</text>
	<line x1="14" y1="71" x2="68" y2="71" stroke="#000000" stroke-width="1"/>
	<text x="14" y="85.8" fill="#000000" font-family="Verdana" font-size="12">name</text>
</g>

<!-- Entity COUNTRY -->
<g>
	<g>
		<rect x="219" y="9" width="76" height="25" fill="#92c5de" stroke="none" stroke-width="0" opacity="1"/>
		<rect x="219" y="34" width="76" height="77" fill="#d1e5f0" stroke="none" stroke-width="0" opacity="1"/>
		<rect x="219" y="9" width="76" height="102" fill="none" stroke="#4393c3" stroke-width="2" opacity="1"/>
		<line x1="219" y1="34" x2="295" y2="34" stroke="#4393c3" stroke-width="1"/>
	</g>
	<text x="227" y="26.75" fill="#000000" font-family="Verdana" font-size="12">COUNTRY</text>
	<text x="224" y="51.8" fill="#000000" font-family="Verdana" font-size="12">country_id</text>
	<line x1="224" y1="54" x2="289" y2="54" stroke="#000000" stroke-width="1"/>
	<text x="224" y="68.8" fill="#000000" font-family="Verdana" font-size="12">name</text>
	<text x="224" y="85.8" fill="#000000" font-family="Verdana" font-size="12">code</text>
	<text x="224" y="102.8" fill="#000000" font-family="Verdana" font-size="12">currency</text>
</g>

<!-- Entity COUPON -->
<g>
	<g>
		<rect x="413" y="9" width="74" height="25" fill="#92c5de" stroke="none" stroke-width="0" opacity="1"/>
		<rect x="413" y="34" width="74" height="77" fill="#d1e5f0" stroke="none" stroke-width="0" opacity="1"/>
		<rect x="413" y="9" width="74" height="102" fill="none" stroke="#4393c3" stroke-width="2" opacity="1"/>
		<line x1="413" y1="34" x2="487" y2="34" stroke="#4393c3" stroke-width="1"/>
	</g>
	<text x="424" y="26.75" fill="#000000" font-family="Verdana" font-size="12">COUPON</text>
	<text x="418" y="51.8" fill="#000000" font-family="Verdana" font-size="12">coupon_id</text>
	<line x1="418" y1="54" x2="481" y2="54" stroke="#000000" stroke-width="1"/>
	<text x="418" y="68.8" fill="#000000" font-family="Verdana" font-size="12">code</text>
	<text x="418" y="85.8" fill="#000000" font-family="Verdana" font-size="12">amount</text>
	<text x="418" y="102.8" fill="#000000" font-family="Verdana" font-size="12">status</text>
</g>

<!-- Entity FREESHIPPING -->
<g>
	<g>
		<rect x="205" y="211" width="104" height="25" fill="#92c5de" stroke="none" stroke-width="0" opacity="1"/>
		<rect x="205" y="236" width="104" height="59" fill="#d1e5f0" stroke="none" stroke-width="0" opacity="1"/>
		<rect x="205" y="211" width="104" height="84" fill="none" stroke="#4393c3" stroke-width="2" opacity="1"/>
		<line x1="205" y1="236" x2="309" y2="236" stroke="#4393c3" stroke-width="1"/>
	</g>
	<text x="211" y="228.75" fill="#000000" font-family="Verdana" font-size="12">FREESHIPPING</text>
	<text x="210" y="253.8" fill="#000000" font-family="Verdana" font-size="12">freeshipping_id</text>
	<line x1="210" y1="256" x2="304" y2="256" stroke="#000000" stroke-width="1"/>
	<text x="210" y="270.8" fill="#000000" font-family="Verdana" font-size="12">code</text>
	<text x="210" y="287.8" fill="#000000" font-family="Verdana" font-size="12">status</text>
</g>
</svg>